PathFileType	4	(X/Y/Z)	Walk4.trc
DataRate	CameraRate	NumFrames	NumMarkers	Units	OrigDataRate	OrigDataStartFrame	OrigNumFrames
200.000000	200.000000	5	58	mm	200.000000	209	454
Frame#	Times		LFHD		RFHD		RBHD		C7		CLAV		STRN		RBack		RASI		LPSI		RACR1		RUA1		RElbow		RFA1		RWRR		RCAR		LACR1		LUA1		LElbow		LFA1		LWRR		LWRU		LCAR		RTH1		RTH3		RTH2		RTH4		RLFC		RTB1		RTB3		RTB2		RTB4		RLMAL		RMMAL		RCAL		RMT1		RMT5		RToe		LTH1		LTH3		LTH2		LTH4		LLFC		LTB1		LTB3		LTB2		LTB4		LLMAL		LMT5		LToe		RWRU		LBHD		T10		LMMAL		RPSI		LASI		LElbowM		LMT1		LCAL
			X1	Y1	Z1	X2	Y2	Z2	X3	Y3	Z3	X4	Y4	Z4	X5	Y5	Z5	X6	Y6	Z6	X7	Y7	Z7	X8	Y8	Z8	X9	Y9	Z9	X10	Y10	Z10	X11	Y11	Z11	X12	Y12	Z12	X13	Y13	Z13	X14	Y14	Z14	X15	Y15	Z15	X16	Y16	Z16	X17	Y17	Z17	X18	Y18	Z18	X19	Y19	Z19	X20	Y20	Z20	X21	Y21	Z21	X22	Y22	Z22	X23	Y23	Z23	X24	Y24	Z24	X25	Y25	Z25	X26	Y26	Z26	X27	Y27	Z27	X28	Y28	Z28	X29	Y29	Z29	X30	Y30	Z30	X31	Y31	Z31	X32	Y32	Z32	X33	Y33	Z33	X34	Y34	Z34	X35	Y35	Z35	X36	Y36	Z36	X37	Y37	Z37	X38	Y38	Z38	X39	Y39	Z39	X40	Y40	Z40	X41	Y41	Z41	X42	Y42	Z42	X43	Y43	Z43	X44	Y44	Z44	X45	Y45	Z45	X46	Y46	Z46	X47	Y47	Z47	X48	Y48	Z48	X49	Y49	Z49	X50	Y50	Z50	X51	Y51	Z51	X52	Y52	Z52	X53	Y53	Z53	X54	Y54	Z54	X55	Y55	Z55	X56	Y56	Z56	X57	Y57	Z57	X58	Y58	Z58

209	1.045	-218.02	1594.2	-84.118	-205.49	1596.6	10.039	-356.59	1549.1	46.314	-399.6	1416.4	-22.104	-260.05	1340.9	-23.18	-199.45	1237.9	-12.429	-456.19	1321.6	78.513	-228.6	978.09	140.06	-461.19	966.02	-57.163	-332.2	1376.4	132.81	-376.79	1196.2	226.37	-442.67	1081.8	245.54	-454	936.47	264.57	-381.5	829.14	239.94	-386.53	776.66	290.37	-317.96	1378	-177.92	-285.43	1203.3	-274.29	-285.08	1076.1	-309.21	-222.66	950.94	-316.14	-117.25	884.52	-254.27	-153.58	855.32	-310.52	-81.251	848.4	-292.85	-265.7	742.19	216.39	-204.8	586.47	172.5	-181.58	687.3	189.49	-236.1	662.93	192.93	-177.78	508.35	150.07	-111.57	358.35	92.362	-123.55	186.86	92.185	-149.56	274.3	142.77	-117.13	271.34	89.008	-165.03	71.542	111.91	-137.1	81.737	33.291	-217.46	29.157	64.151	-41.281	56.102	76.972	-80.899	39.987	139.37	7.0291	72.849	116.69	-321.83	752.27	-229.26	-355.44	596.76	-165.99	-283.07	672.61	-176.29	-339.11	677.25	-192.96	-376.41	476.61	-133.21	-354.44	330.61	-52.328	-395.71	163.14	-53.721	-394.76	249.81	-109.84	-375.75	246.62	-51.583	-452.74	61.038	-78.302	-368.58	23.585	-91.207	-270.11	24.237	-35.738	-443.71	827.44	275.65	-369.51	1538.8	-93.554	-467.82	1148.8	-29.44	-440.92	62.999	6.1243	-463.62	966.42	32.941	-210.94	958.24	-151.98	-320.73	1036.7	-244.48	-340.19	28.689	-10.204	-518.46	34.143	-46.007
210	1.05	-212.57	1593.3	-83.762	-200.03	1595.7	10.399	-351.17	1548.3	46.696	-394.31	1415.6	-21.807	-254.78	1340.1	-22.97	-194.14	1237.1	-12.41	-450.96	1320.7	78.702	-223.13	977.33	140.41	-456.06	965.16	-56.617	-326.98	1375.5	133.11	-372.13	1195.5	226.53	-438.26	1081.1	245.35	-449.92	935.8	264.4	-377.21	828.4	240.48	-382.82	775.96	290.89	-312.66	1377.3	-177.61	-279.13	1202.9	-274.07	-277.91	1075.8	-309.14	-214.35	951.17	-315.79	-108.35	885.97	-253.64	-144.41	856.21	-309.76	-71.963	850.1	-292.12	-259.49	741.66	216.72	-200.07	585.48	172.48	-176.06	686.21	188.96	-230.63	662.18	193.14	-173.17	507.36	149.86	-103.22	359.28	92.322	-109.84	187.45	92.733	-138.61	274.27	142.97	-106.02	272.1	89.261	-147.81	70.827	112.56	-119.98	81.754	34.019	-198.98	27.071	64.732	-23.452	58.502	77.987	-62.776	41.272	140.19	24.313	76.447	117.73	-317.46	751.61	-229.2	-352.05	596.38	-165.8	-279.27	671.73	-175.96	-335.25	676.76	-192.83	-373.96	476.36	-133.03	-352.87	330.22	-52.276	-395.06	162.96	-53.655	-393.7	249.65	-109.74	-374.61	246.35	-51.535	-452.62	61.189	-78.188	-368.58	23.576	-91.195	-270	24.154	-35.861	-439.83	826.73	275.5	-364.12	1538	-93.218	-462.59	1148	-29.217	-440.74	63.052	6.2414	-458.28	965.58	33.509	-205.96	957.19	-151.85	-313.5	1036.1	-244.57	-340.14	28.663	-10.192	-518.41	34.502	-45.881
211	1.055	-207.13	1592.5	-83.392	-194.57	1594.8	10.773	-345.74	1547.5	47.097	-389.02	1414.8	-21.492	-249.5	1339.2	-22.745	-188.81	1236.2	-12.369	-445.71	1319.9	78.921	-217.64	976.57	140.75	-450.91	964.27	-56.071	-321.73	1374.7	133.42	-367.4	1194.7	226.7	-433.76	1080.3	245.18	-445.76	935.1	264.26	-372.88	827.63	241.01	-379.03	775.22	291.41	-307.37	1376.6	-177.29	-272.84	1202.6	-273.82	-270.75	1075.5	-309.03	-206.11	951.37	-315.42	-99.553	887.34	-252.99	-135.34	857.05	-308.98	-62.8	851.74	-291.37	-253.3	741.07	217.02	-195.44	584.38	172.54	-170.61	685.01	188.4	-225.22	661.35	193.4	-168.6	506.31	149.71	-95.018	360.23	92.276	-96.403	188.21	93.268	-127.83	274.35	143.19	-95.115	272.97	89.506	-130.9	70.409	113.18	-103.21	82.058	34.725	-180.83	25.36	65.309	-6.0279	61.086	78.919	-45.013	42.768	140.94	41.216	80.151	118.67	-312.98	750.93	-229.11	-348.56	595.97	-165.59	-275.38	670.84	-175.62	-331.28	676.22	-192.68	-371.42	476.09	-132.83	-351.24	329.82	-52.206	-394.39	162.79	-53.577	-392.58	249.5	-109.64	-373.43	246.08	-51.472	-452.5	61.357	-78.07	-368.59	23.566	-91.177	-269.89	24.072	-35.99	-435.86	825.99	275.37	-358.73	1537.3	-92.864	-457.35	1147.3	-28.962	-440.56	63.122	6.3624	-452.92	964.71	34.075	-200.95	956.14	-151.69	-306.3	1035.5	-244.63	-340.08	28.639	-10.178	-518.35	34.895	-45.751
212	1.06	-201.68	1591.6	-83.009	-189.11	1593.9	11.16	-340.32	1546.7	47.518	-383.73	1413.9	-21.159	-244.22	1338.3	-22.504	-183.49	1235.2	-12.303	-440.45	1319	79.17	-212.1	975.79	141.08	-445.74	963.36	-55.522	-316.46	1373.8	133.74	-362.61	1193.9	226.89	-429.19	1079.6	245.03	-441.52	934.37	264.14	-368.53	826.82	241.54	-375.17	774.45	291.93	-302.08	1375.8	-176.95	-266.57	1202.2	-273.55	-263.61	1075.2	-308.89	-197.94	951.54	-315.02	-90.875	888.64	-252.31	-126.39	857.82	-308.18	-53.762	853.3	-290.61	-247.16	740.43	217.29	-190.88	583.21	172.68	-165.23	683.73	187.82	-219.87	660.45	193.72	-164.03	505.22	149.65	-86.963	361.19	92.222	-83.266	189.12	93.782	-117.21	274.55	143.42	-84.436	273.92	89.738	-114.35	70.27	113.79	-86.834	82.623	35.405	-163.07	24.007	65.882	10.953	63.817	79.747	-27.644	44.441	141.61	57.712	83.919	119.49	-308.41	750.22	-228.99	-344.97	595.55	-165.37	-271.4	669.95	-175.25	-327.22	675.65	-192.49	-368.79	475.82	-132.61	-349.55	329.41	-52.114	-393.68	162.62	-53.485	-391.41	249.35	-109.51	-372.2	245.79	-51.391	-452.36	61.544	-77.947	-368.6	23.554	-91.151	-269.78	23.991	-36.125	-431.82	825.22	275.27	-353.34	1536.6	-92.491	-452.1	1146.4	-28.676	-440.36	63.21	6.4883	-447.55	963.8	34.641	-195.91	955.09	-151.49	-299.14	1034.9	-244.66	-340.03	28.617	-10.163	-518.28	35.325	-45.615
213	1.065	-196.24	1590.7	-82.614	-183.64	1592.9	11.56	-334.89	1545.9	47.959	-378.45	1413.1	-20.808	-238.93	1337.5	-22.246	-178.15	1234.3	-12.209	-435.17	1318.1	79.45	-206.53	975	141.38	-440.55	962.41	-54.97	-311.17	1372.9	134.07	-357.75	1193.1	227.09	-424.54	1078.8	244.9	-437.2	933.61	264.05	-364.14	825.97	242.06	-371.24	773.65	292.45	-296.79	1375.1	-176.6	-260.33	1201.8	-273.24	-256.48	1074.9	-308.71	-189.83	951.69	-314.59	-82.314	889.85	-251.6	-117.54	858.55	-307.37	-44.85	854.79	-289.83	-241.05	739.76	217.54	-186.38	581.95	172.92	-159.92	682.38	187.24	-214.58	659.48	194.09	-159.45	504.1	149.65	-79.05	362.16	92.156	-70.449	190.17	94.267	-106.78	274.85	143.65	-73.994	274.94	89.95	-98.184	70.385	114.37	-70.909	83.421	36.053	-145.75	22.987	66.453	27.454	66.655	80.453	-10.704	46.259	142.19	73.777	87.709	120.16	-303.73	749.49	-228.83	-341.29	595.1	-165.13	-267.32	669.06	-174.87	-323.07	675.05	-192.28	-366.06	475.53	-132.37	-347.8	329	-51.997	-392.94	162.47	-53.379	-390.19	249.21	-109.38	-370.92	245.51	-51.291	-452.21	61.752	-77.817	-368.62	23.543	-91.118	-269.67	23.908	-36.266	-427.7	824.42	275.21	-347.95	1535.8	-92.098	-446.84	1145.6	-28.36	-440.15	63.321	6.6196	-442.16	962.85	35.208	-190.85	954.04	-151.26	-292.01	1034.2	-244.65	-339.98	28.598	-10.144	-518.2	35.795	-45.474
